<svg width="59" height="58" viewBox="0 0 59 58" fill="none" xmlns="http://www.w3.org/2000/svg">
<path d="M58.4035 29C58.4035 45.0155 45.419 58 29.4035 58C13.388 58 0.403503 45.0155 0.403503 29C0.403503 12.9845 13.388 0 29.4035 0C45.419 0 58.4035 12.9845 58.4035 29ZM28.7552 16.2623C28.5472 16.4686 28.3818 16.7139 28.2686 16.9842C28.1554 17.2544 28.0965 17.5443 28.0954 17.8373C28.0942 18.1303 28.1507 18.4206 28.2618 18.6918C28.3729 18.9629 28.5363 19.2095 28.7426 19.4175L36.0373 26.7692H17.4131C16.8215 26.7692 16.2541 27.0043 15.8357 27.4226C15.4174 27.841 15.1824 28.4084 15.1824 29C15.1824 29.5916 15.4174 30.159 15.8357 30.5774C16.2541 30.9957 16.8215 31.2308 17.4131 31.2308H36.0373L28.7426 38.5826C28.5363 38.7907 28.373 39.0375 28.262 39.3088C28.151 39.5801 28.0946 39.8706 28.0959 40.1637C28.0972 40.4568 28.1562 40.7468 28.2695 41.0171C28.3829 41.2874 28.5484 41.5327 28.7566 41.7391C28.9648 41.9454 29.2115 42.1088 29.4828 42.2197C29.7541 42.3307 30.0446 42.3871 30.3377 42.3859C30.6308 42.3846 30.9208 42.3255 31.1911 42.2122C31.4614 42.0988 31.7068 41.9333 31.9131 41.7251L42.9819 30.5713C43.3966 30.1535 43.6292 29.5887 43.6292 29C43.6292 28.4113 43.3966 27.8465 42.9819 27.4287L31.9131 16.2749C31.7067 16.0664 31.4613 15.9007 31.1908 15.7873C30.9203 15.6738 30.6301 15.6148 30.3368 15.6136C30.0434 15.6125 29.7528 15.6691 29.4814 15.7805C29.21 15.8918 28.9632 16.0555 28.7552 16.2623Z" fill="#A3C7E8"/>
</svg>
