<svg width="58" height="58" viewBox="0 0 58 58" fill="none" xmlns="http://www.w3.org/2000/svg">
<path d="M0 29C0 45.0155 12.9845 58 29 58C45.0155 58 58 45.0155 58 29C58 12.9845 45.0155 0 29 0C12.9845 0 0 12.9845 0 29ZM29.6483 16.2623C29.8563 16.4686 30.0217 16.7139 30.1349 16.9842C30.2481 17.2544 30.307 17.5443 30.3082 17.8373C30.3093 18.1303 30.2528 18.4206 30.1417 18.6918C30.0306 18.9629 29.8672 19.2095 29.6609 19.4175L22.3662 26.7692H40.9904C41.582 26.7692 42.1494 27.0043 42.5678 27.4226C42.9861 27.841 43.2212 28.4084 43.2212 29C43.2212 29.5916 42.9861 30.159 42.5678 30.5774C42.1494 30.9957 41.582 31.2308 40.9904 31.2308H22.3662L29.6609 38.5826C29.8672 38.7907 30.0305 39.0375 30.1415 39.3088C30.2525 39.5801 30.3089 39.8706 30.3076 40.1637C30.3063 40.4568 30.2473 40.7468 30.134 41.0171C30.0206 41.2874 29.8551 41.5327 29.6469 41.7391C29.4387 41.9454 29.192 42.1088 28.9207 42.2197C28.6494 42.3307 28.3589 42.3871 28.0658 42.3859C27.7727 42.3846 27.4827 42.3255 27.2124 42.2122C26.9421 42.0988 26.6967 41.9333 26.4904 41.7251L15.4216 30.5713C15.007 30.1535 14.7743 29.5887 14.7743 29C14.7743 28.4113 15.007 27.8465 15.4216 27.4287L26.4904 16.2749C26.6968 16.0664 26.9422 15.9007 27.2127 15.7873C27.4832 15.6738 27.7734 15.6148 28.0667 15.6136C28.3601 15.6125 28.6507 15.6691 28.9221 15.7805C29.1935 15.8918 29.4403 16.0555 29.6483 16.2623Z" fill="#A3C7E8"/>
</svg>
